STARTFONT 2.1
COMMENT
COMMENT Converted from OpenType font "Px437_IBM_VGA_8x16.ttf" by "otf2bdf 3.0".
COMMENT
FONT -FreeType-Px437 IBM VGA 8x16-Medium-R-Normal--17-120-100-100-P-71-ISO10646-1
SIZE 12 100 100
FONTBOUNDINGBOX 9 17 0 -4
STARTPROPERTIES 19
FOUNDRY "FreeType"
FAMILY_NAME "Px437 IBM VGA 8x16"
WEIGHT_NAME "Medium"
SLANT "R"
SETWIDTH_NAME "Normal"
ADD_STYLE_NAME ""
PIXEL_SIZE 17
POINT_SIZE 120
RESOLUTION_X 100
RESOLUTION_Y 100
SPACING "P"
AVERAGE_WIDTH 71
CHARSET_REGISTRY "ISO10646"
CHARSET_ENCODING "1"
FONT_ASCENT 12
FONT_DESCENT 4
COPYRIGHT "Outline (vector) version by VileR, 2020"
_OTF_FONTFILE "Px437_IBM_VGA_8x16.ttf"
_OTF_PSNAME "Px437_IBM_VGA_8x16"
ENDPROPERTIES
CHARS 95
STARTCHAR 0020
ENCODING 32
SWIDTH 540 0
DWIDTH 9 0
BBX 0 0 0 0
BITMAP
ENDCHAR
STARTCHAR 0021
ENCODING 33
SWIDTH 540 0
DWIDTH 9 0
BBX 4 11 2 0
BITMAP
60
F0
F0
F0
F0
60
60
60
00
60
60
ENDCHAR
STARTCHAR 0022
ENCODING 34
SWIDTH 540 0
DWIDTH 9 0
BBX 6 5 1 7
BITMAP
CC
CC
CC
C8
48
ENDCHAR
STARTCHAR 0023
ENCODING 35
SWIDTH 540 0
DWIDTH 9 0
BBX 7 10 0 0
BITMAP
6C
6C
6C
FE
6C
6C
6C
FE
6C
6C
ENDCHAR
STARTCHAR 0024
ENCODING 36
SWIDTH 540 0
DWIDTH 9 0
BBX 7 15 0 -2
BITMAP
18
18
7C
C6
C6
C2
C0
7C
06
06
86
C6
7C
18
18
ENDCHAR
STARTCHAR 0025
ENCODING 37
SWIDTH 540 0
DWIDTH 9 0
BBX 7 9 0 0
BITMAP
C2
C2
C6
0C
18
30
60
C6
86
ENDCHAR
STARTCHAR 0026
ENCODING 38
SWIDTH 540 0
DWIDTH 9 0
BBX 7 11 0 0
BITMAP
38
6C
6C
6C
38
76
DC
CC
CC
CC
76
ENDCHAR
STARTCHAR 0027
ENCODING 39
SWIDTH 540 0
DWIDTH 9 0
BBX 3 5 1 7
BITMAP
60
60
60
40
C0
ENDCHAR
STARTCHAR 0028
ENCODING 40
SWIDTH 540 0
DWIDTH 9 0
BBX 4 11 2 0
BITMAP
30
60
40
C0
C0
C0
C0
C0
C0
60
30
ENDCHAR
STARTCHAR 0029
ENCODING 41
SWIDTH 540 0
DWIDTH 9 0
BBX 4 11 2 0
BITMAP
C0
60
70
30
30
30
30
30
30
60
C0
ENDCHAR
STARTCHAR 002A
ENCODING 42
SWIDTH 540 0
DWIDTH 9 0
BBX 9 5 0 2
BITMAP
6600
3C00
FF80
3C00
6600
ENDCHAR
STARTCHAR 002B
ENCODING 43
SWIDTH 540 0
DWIDTH 9 0
BBX 6 5 1 2
BITMAP
30
30
FC
30
30
ENDCHAR
STARTCHAR 002C
ENCODING 44
SWIDTH 540 0
DWIDTH 9 0
BBX 3 4 2 -1
BITMAP
60
60
60
C0
ENDCHAR
STARTCHAR 002D
ENCODING 45
SWIDTH 540 0
DWIDTH 9 0
BBX 7 1 0 4
BITMAP
FE
ENDCHAR
STARTCHAR 002E
ENCODING 46
SWIDTH 540 0
DWIDTH 9 0
BBX 2 2 3 0
BITMAP
C0
C0
ENDCHAR
STARTCHAR 002F
ENCODING 47
SWIDTH 540 0
DWIDTH 9 0
BBX 7 9 0 0
BITMAP
02
02
06
0C
18
30
60
C0
80
ENDCHAR
STARTCHAR 0030
ENCODING 48
SWIDTH 540 0
DWIDTH 9 0
BBX 7 11 0 0
BITMAP
38
6C
4E
C6
C6
D6
D6
C6
C6
6C
38
ENDCHAR
STARTCHAR 0031
ENCODING 49
SWIDTH 540 0
DWIDTH 9 0
BBX 6 11 1 0
BITMAP
30
70
70
F0
30
30
30
30
30
30
FC
ENDCHAR
STARTCHAR 0032
ENCODING 50
SWIDTH 540 0
DWIDTH 9 0
BBX 7 11 0 0
BITMAP
7C
C6
C6
06
0C
18
30
60
C0
C6
FE
ENDCHAR
STARTCHAR 0033
ENCODING 51
SWIDTH 540 0
DWIDTH 9 0
BBX 7 11 0 0
BITMAP
7C
C6
C6
06
06
3C
06
06
06
C6
7C
ENDCHAR
STARTCHAR 0034
ENCODING 52
SWIDTH 540 0
DWIDTH 9 0
BBX 7 11 0 0
BITMAP
0C
1C
1C
3C
6C
CC
FE
0C
0C
0C
1E
ENDCHAR
STARTCHAR 0035
ENCODING 53
SWIDTH 540 0
DWIDTH 9 0
BBX 7 11 0 0
BITMAP
FE
C0
C0
C0
C0
FC
06
06
06
C6
7C
ENDCHAR
STARTCHAR 0036
ENCODING 54
SWIDTH 540 0
DWIDTH 9 0
BBX 7 11 0 0
BITMAP
38
60
40
C0
C0
FC
C6
C6
C6
C6
7C
ENDCHAR
STARTCHAR 0037
ENCODING 55
SWIDTH 540 0
DWIDTH 9 0
BBX 7 11 0 0
BITMAP
FE
C6
C6
06
06
0C
18
30
30
30
30
ENDCHAR
STARTCHAR 0038
ENCODING 56
SWIDTH 540 0
DWIDTH 9 0
BBX 7 11 0 0
BITMAP
7C
C6
C6
C6
C6
7C
C6
C6
C6
C6
7C
ENDCHAR
STARTCHAR 0039
ENCODING 57
SWIDTH 540 0
DWIDTH 9 0
BBX 7 11 0 0
BITMAP
7C
C6
C6
C6
C6
7E
06
06
06
0C
78
ENDCHAR
STARTCHAR 003A
ENCODING 58
SWIDTH 540 0
DWIDTH 9 0
BBX 2 8 3 1
BITMAP
C0
C0
C0
00
00
00
C0
C0
ENDCHAR
STARTCHAR 003B
ENCODING 59
SWIDTH 540 0
DWIDTH 9 0
BBX 3 9 2 0
BITMAP
60
60
60
00
00
00
60
60
C0
ENDCHAR
STARTCHAR 003C
ENCODING 60
SWIDTH 540 0
DWIDTH 9 0
BBX 6 10 1 0
BITMAP
0C
08
18
30
60
C0
60
30
18
0C
ENDCHAR
STARTCHAR 003D
ENCODING 61
SWIDTH 540 0
DWIDTH 9 0
BBX 6 4 1 3
BITMAP
FC
00
00
FC
ENDCHAR
STARTCHAR 003E
ENCODING 62
SWIDTH 540 0
DWIDTH 9 0
BBX 6 10 1 0
BITMAP
C0
E0
60
30
18
0C
18
30
60
C0
ENDCHAR
STARTCHAR 003F
ENCODING 63
SWIDTH 540 0
DWIDTH 9 0
BBX 7 11 0 0
BITMAP
7C
C6
C6
C6
0C
18
18
18
00
18
18
ENDCHAR
STARTCHAR 0040
ENCODING 64
SWIDTH 540 0
DWIDTH 9 0
BBX 7 10 0 0
BITMAP
7C
46
C6
C6
DE
DE
DE
DC
C0
7C
ENDCHAR
STARTCHAR 0041
ENCODING 65
SWIDTH 540 0
DWIDTH 9 0
BBX 7 11 0 0
BITMAP
10
38
2C
6C
C6
C6
FE
C6
C6
C6
C6
ENDCHAR
STARTCHAR 0042
ENCODING 66
SWIDTH 540 0
DWIDTH 9 0
BBX 7 11 0 0
BITMAP
FC
66
66
66
66
7C
66
66
66
66
FC
ENDCHAR
STARTCHAR 0043
ENCODING 67
SWIDTH 540 0
DWIDTH 9 0
BBX 7 11 0 0
BITMAP
3C
66
46
C2
C0
C0
C0
C0
C2
66
3C
ENDCHAR
STARTCHAR 0044
ENCODING 68
SWIDTH 540 0
DWIDTH 9 0
BBX 7 11 0 0
BITMAP
F8
6C
6E
66
66
66
66
66
66
6C
F8
ENDCHAR
STARTCHAR 0045
ENCODING 69
SWIDTH 540 0
DWIDTH 9 0
BBX 7 11 0 0
BITMAP
FE
66
66
62
68
78
68
60
62
66
FE
ENDCHAR
STARTCHAR 0046
ENCODING 70
SWIDTH 540 0
DWIDTH 9 0
BBX 7 11 0 0
BITMAP
FE
66
66
62
68
78
68
60
60
60
F0
ENDCHAR
STARTCHAR 0047
ENCODING 71
SWIDTH 540 0
DWIDTH 9 0
BBX 7 11 0 0
BITMAP
3C
66
46
C2
C0
C0
DE
C6
C6
66
3A
ENDCHAR
STARTCHAR 0048
ENCODING 72
SWIDTH 540 0
DWIDTH 9 0
BBX 7 11 0 0
BITMAP
C6
C6
C6
C6
C6
FE
C6
C6
C6
C6
C6
ENDCHAR
STARTCHAR 0049
ENCODING 73
SWIDTH 540 0
DWIDTH 9 0
BBX 4 11 2 0
BITMAP
F0
60
60
60
60
60
60
60
60
60
F0
ENDCHAR
STARTCHAR 004A
ENCODING 74
SWIDTH 540 0
DWIDTH 9 0
BBX 7 11 0 0
BITMAP
1E
0C
0C
0C
0C
0C
0C
CC
CC
CC
78
ENDCHAR
STARTCHAR 004B
ENCODING 75
SWIDTH 540 0
DWIDTH 9 0
BBX 7 11 0 0
BITMAP
E6
66
66
66
6C
78
78
6C
66
66
E6
ENDCHAR
STARTCHAR 004C
ENCODING 76
SWIDTH 540 0
DWIDTH 9 0
BBX 7 11 0 0
BITMAP
F0
60
60
60
60
60
60
60
62
66
FE
ENDCHAR
STARTCHAR 004D
ENCODING 77
SWIDTH 540 0
DWIDTH 9 0
BBX 7 11 0 0
BITMAP
C6
EE
EE
FE
FE
D6
C6
C6
C6
C6
C6
ENDCHAR
STARTCHAR 004E
ENCODING 78
SWIDTH 540 0
DWIDTH 9 0
BBX 7 11 0 0
BITMAP
C6
E6
F6
F6
FE
DE
CE
C6
C6
C6
C6
ENDCHAR
STARTCHAR 004F
ENCODING 79
SWIDTH 540 0
DWIDTH 9 0
BBX 7 11 0 0
BITMAP
7C
C6
C6
C6
C6
C6
C6
C6
C6
C6
7C
ENDCHAR
STARTCHAR 0050
ENCODING 80
SWIDTH 540 0
DWIDTH 9 0
BBX 7 11 0 0
BITMAP
FC
66
66
66
66
7C
60
60
60
60
F0
ENDCHAR
STARTCHAR 0051
ENCODING 81
SWIDTH 540 0
DWIDTH 9 0
BBX 7 13 0 -2
BITMAP
7C
C6
C6
C6
C6
C6
C6
C6
D6
DE
7C
0C
0E
ENDCHAR
STARTCHAR 0052
ENCODING 82
SWIDTH 540 0
DWIDTH 9 0
BBX 7 11 0 0
BITMAP
FC
66
66
66
66
7C
6C
66
66
66
E6
ENDCHAR
STARTCHAR 0053
ENCODING 83
SWIDTH 540 0
DWIDTH 9 0
BBX 7 11 0 0
BITMAP
7C
C6
C6
C6
60
38
0C
06
C6
C6
7C
ENDCHAR
STARTCHAR 0054
ENCODING 84
SWIDTH 540 0
DWIDTH 9 0
BBX 6 11 1 0
BITMAP
FC
FC
B4
B4
30
30
30
30
30
30
78
ENDCHAR
STARTCHAR 0055
ENCODING 85
SWIDTH 540 0
DWIDTH 9 0
BBX 7 11 0 0
BITMAP
C6
C6
C6
C6
C6
C6
C6
C6
C6
C6
7C
ENDCHAR
STARTCHAR 0056
ENCODING 86
SWIDTH 540 0
DWIDTH 9 0
BBX 7 11 0 0
BITMAP
C6
C6
C6
C6
C6
C6
C6
C6
6C
38
10
ENDCHAR
STARTCHAR 0057
ENCODING 87
SWIDTH 540 0
DWIDTH 9 0
BBX 7 11 0 0
BITMAP
C6
C6
C6
C6
C6
D6
D6
D6
FE
EE
6C
ENDCHAR
STARTCHAR 0058
ENCODING 88
SWIDTH 540 0
DWIDTH 9 0
BBX 7 11 0 0
BITMAP
C6
C6
E4
6C
7C
38
38
7C
6C
C6
C6
ENDCHAR
STARTCHAR 0059
ENCODING 89
SWIDTH 540 0
DWIDTH 9 0
BBX 6 11 1 0
BITMAP
CC
CC
CC
CC
CC
78
30
30
30
30
78
ENDCHAR
STARTCHAR 005A
ENCODING 90
SWIDTH 540 0
DWIDTH 9 0
BBX 7 11 0 0
BITMAP
FE
C6
86
86
0C
18
30
60
C2
C6
FE
ENDCHAR
STARTCHAR 005B
ENCODING 91
SWIDTH 540 0
DWIDTH 9 0
BBX 4 11 2 0
BITMAP
F0
C0
C0
C0
C0
C0
C0
C0
C0
C0
F0
ENDCHAR
STARTCHAR 005C
ENCODING 92
SWIDTH 540 0
DWIDTH 9 0
BBX 7 10 0 0
BITMAP
80
C0
C0
E0
70
38
1C
0E
06
02
ENDCHAR
STARTCHAR 005D
ENCODING 93
SWIDTH 540 0
DWIDTH 9 0
BBX 4 11 2 0
BITMAP
F0
30
30
30
30
30
30
30
30
30
F0
ENDCHAR
STARTCHAR 005E
ENCODING 94
SWIDTH 540 0
DWIDTH 9 0
BBX 7 5 0 8
BITMAP
10
38
6C
C6
C6
ENDCHAR
STARTCHAR 005F
ENCODING 95
SWIDTH 540 0
DWIDTH 9 0
BBX 9 1 0 -2
BITMAP
FF80
ENDCHAR
STARTCHAR 0060
ENCODING 96
SWIDTH 540 0
DWIDTH 9 0
BBX 3 3 2 10
BITMAP
C0
C0
60
ENDCHAR
STARTCHAR 0061
ENCODING 97
SWIDTH 540 0
DWIDTH 9 0
BBX 7 7 0 0
BITMAP
78
0C
7C
CC
CC
CC
76
ENDCHAR
STARTCHAR 0062
ENCODING 98
SWIDTH 540 0
DWIDTH 9 0
BBX 7 11 0 0
BITMAP
E0
60
60
60
78
6C
66
66
66
66
7C
ENDCHAR
STARTCHAR 0063
ENCODING 99
SWIDTH 540 0
DWIDTH 9 0
BBX 7 7 0 0
BITMAP
7C
C6
C0
C0
C0
C6
7C
ENDCHAR
STARTCHAR 0064
ENCODING 100
SWIDTH 540 0
DWIDTH 9 0
BBX 7 11 0 0
BITMAP
1C
0C
0C
0C
3C
6C
CC
CC
CC
CC
76
ENDCHAR
STARTCHAR 0065
ENCODING 101
SWIDTH 540 0
DWIDTH 9 0
BBX 7 7 0 0
BITMAP
7C
C6
FE
C0
C0
C6
7C
ENDCHAR
STARTCHAR 0066
ENCODING 102
SWIDTH 540 0
DWIDTH 9 0
BBX 6 11 0 0
BITMAP
38
6C
6C
64
60
F0
60
60
60
60
F0
ENDCHAR
STARTCHAR 0067
ENCODING 103
SWIDTH 540 0
DWIDTH 9 0
BBX 7 10 0 -3
BITMAP
76
CC
CC
CC
CC
CC
7C
0C
CC
78
ENDCHAR
STARTCHAR 0068
ENCODING 104
SWIDTH 540 0
DWIDTH 9 0
BBX 7 11 0 0
BITMAP
E0
60
60
60
6C
76
66
66
66
66
E6
ENDCHAR
STARTCHAR 0069
ENCODING 105
SWIDTH 540 0
DWIDTH 9 0
BBX 4 11 2 0
BITMAP
60
60
60
00
E0
60
60
60
60
60
F0
ENDCHAR
STARTCHAR 006A
ENCODING 106
SWIDTH 540 0
DWIDTH 9 0
BBX 6 14 1 -3
BITMAP
0C
0C
0C
00
1C
0C
0C
0C
0C
0C
0C
CC
CC
78
ENDCHAR
STARTCHAR 006B
ENCODING 107
SWIDTH 540 0
DWIDTH 9 0
BBX 7 11 0 0
BITMAP
E0
60
60
60
66
6C
78
78
6C
66
E6
ENDCHAR
STARTCHAR 006C
ENCODING 108
SWIDTH 540 0
DWIDTH 9 0
BBX 4 11 2 0
BITMAP
E0
60
60
60
60
60
60
60
60
60
F0
ENDCHAR
STARTCHAR 006D
ENCODING 109
SWIDTH 540 0
DWIDTH 9 0
BBX 7 7 0 0
BITMAP
EC
FE
D6
D6
D6
D6
C6
ENDCHAR
STARTCHAR 006E
ENCODING 110
SWIDTH 540 0
DWIDTH 9 0
BBX 7 7 0 0
BITMAP
DC
66
66
66
66
66
66
ENDCHAR
STARTCHAR 006F
ENCODING 111
SWIDTH 540 0
DWIDTH 9 0
BBX 7 7 0 0
BITMAP
7C
C6
C6
C6
C6
C6
7C
ENDCHAR
STARTCHAR 0070
ENCODING 112
SWIDTH 540 0
DWIDTH 9 0
BBX 7 10 0 -3
BITMAP
DC
66
66
66
66
66
7C
60
60
F0
ENDCHAR
STARTCHAR 0071
ENCODING 113
SWIDTH 540 0
DWIDTH 9 0
BBX 7 10 0 -3
BITMAP
76
CC
CC
CC
CC
CC
7C
0C
0C
1E
ENDCHAR
STARTCHAR 0072
ENCODING 114
SWIDTH 540 0
DWIDTH 9 0
BBX 7 7 0 0
BITMAP
DC
76
66
60
60
60
F0
ENDCHAR
STARTCHAR 0073
ENCODING 115
SWIDTH 540 0
DWIDTH 9 0
BBX 7 7 0 0
BITMAP
7C
C6
60
38
0C
C6
7C
ENDCHAR
STARTCHAR 0074
ENCODING 116
SWIDTH 540 0
DWIDTH 9 0
BBX 7 11 0 0
BITMAP
10
30
30
30
FC
30
30
30
30
36
1C
ENDCHAR
STARTCHAR 0075
ENCODING 117
SWIDTH 540 0
DWIDTH 9 0
BBX 7 7 0 0
BITMAP
CC
CC
CC
CC
CC
CC
76
ENDCHAR
STARTCHAR 0076
ENCODING 118
SWIDTH 540 0
DWIDTH 9 0
BBX 6 7 1 0
BITMAP
CC
CC
CC
CC
CC
78
30
ENDCHAR
STARTCHAR 0077
ENCODING 119
SWIDTH 540 0
DWIDTH 9 0
BBX 7 7 0 0
BITMAP
C6
C6
D6
D6
D6
FE
6C
ENDCHAR
STARTCHAR 0078
ENCODING 120
SWIDTH 540 0
DWIDTH 9 0
BBX 7 7 0 0
BITMAP
C6
6C
38
38
38
6C
C6
ENDCHAR
STARTCHAR 0079
ENCODING 121
SWIDTH 540 0
DWIDTH 9 0
BBX 7 10 0 -3
BITMAP
C6
C6
C6
C6
C6
C6
7E
06
0C
F8
ENDCHAR
STARTCHAR 007A
ENCODING 122
SWIDTH 540 0
DWIDTH 9 0
BBX 7 7 0 0
BITMAP
FE
CC
18
30
60
C6
FE
ENDCHAR
STARTCHAR 007B
ENCODING 123
SWIDTH 540 0
DWIDTH 9 0
BBX 6 11 1 0
BITMAP
1C
30
30
30
30
E0
30
30
30
30
1C
ENDCHAR
STARTCHAR 007C
ENCODING 124
SWIDTH 540 0
DWIDTH 9 0
BBX 2 11 3 0
BITMAP
C0
C0
C0
C0
C0
00
C0
C0
C0
C0
C0
ENDCHAR
STARTCHAR 007D
ENCODING 125
SWIDTH 540 0
DWIDTH 9 0
BBX 6 11 1 0
BITMAP
E0
30
30
30
30
1C
30
30
30
30
E0
ENDCHAR
STARTCHAR 007E
ENCODING 126
SWIDTH 540 0
DWIDTH 9 0
BBX 7 3 0 8
BITMAP
76
DC
DC
ENDCHAR
ENDFONT
